<?xml version="1.0" encoding="utf-8"?>
<!-- Generator: Adobe Illustrator 19.2.1, SVG Export Plug-In . SVG Version: 6.00 Build 0)  -->
<svg version="1.1" id="Capa_1" xmlns="http://www.w3.org/2000/svg" xmlns:xlink="http://www.w3.org/1999/xlink" x="0px" y="0px"
	 viewBox="0 0 166 103" style="enable-background:new 0 0 166 103;" xml:space="preserve">
<style type="text/css">
	.st0{fill:#1F1A17;}
</style>
<g>
	<polygon class="st0" points="110.7,20.7 110.6,20.2 105.4,18 105.3,17.9 105.3,17.9 105.2,17.9 105.2,17.9 104.9,17.8 102.8,23.2 
		102.7,23.4 102.9,23.6 103.2,24 103.6,24.4 103.8,23.9 103.9,23.8 108.4,25.5 106.4,30.2 101.8,28.4 101.4,28.7 106.2,30.6 
		106.2,30.7 106,31.2 106.5,31.2 107,31.1 107.2,31.1 107.3,30.9 109.6,25.5 109.9,24.9 109.3,25 108.8,25 108.6,25 108.5,25.1 
		104,23.3 105.9,18.7 	"/>
	<path class="st0" d="M92.9,16.4h-0.9v0.3l-3.7,6.8h-0.2v0.3l-1.9,3.4h0v0l0,0l0,0v0.2h0v2.4h0v0h0.9v0v-2.4l1.6-2.9h3.2V30h0.9V17
		l0-0.1l0,0V16.4z M91.9,23.6h-2.6l2.6-4.8V23.6z"/>
	<path class="st0" d="M153.2,17.3v-0.5h-0.9v0.3l-3.7,6.8h-0.2v0.3l-1.9,3.4h0v0l0,0l0,0v0.2h0v2.4h0v0h0.9v0v-2.4l1.6-2.9h3.2v5.3
		h0.9V17.3L153.2,17.3L153.2,17.3z M152.3,23.9h-2.6l2.6-4.8V23.9z"/>
	<polygon class="st0" points="136.9,27.5 137.3,27.3 133.7,23.9 133.4,24 133.4,18 136.6,21 137,20.9 133.4,17.5 133.4,17.5 
		133.4,17.3 133.1,17.3 132.7,17.3 132.4,17.3 132.4,30.9 132.7,30.9 133.1,30.9 133.4,30.9 133.4,30.6 136.9,33.9 137.3,33.8 
		133.7,30.3 133.4,30.4 133.4,24.1 	"/>
	<rect x="112.4" y="19" class="st0" width="1.2" height="11.9"/>
	
		<rect x="112.2" y="15.2" transform="matrix(0.7093 -0.7049 0.7049 0.7093 21.5807 84.3866)" class="st0" width="1.8" height="1.8"/>
	<polygon class="st0" points="118,29.6 118,17.3 117.6,17.3 117.3,17.3 116.9,17.3 116.9,30.8 117.3,30.8 117.3,30.8 117.4,30.9 
		117.4,30.8 117.6,30.8 118,30.8 118,30.2 121.5,26.6 121.3,26.1 	"/>
	<polygon class="st0" points="81.1,28.7 81.1,16.4 80.8,16.4 80.4,16.4 80.1,16.4 80.1,29.9 80.4,29.9 80.5,29.9 80.5,30 80.6,29.9 
		80.8,29.9 81.1,29.9 81.1,29.3 84.6,25.7 84.5,25.2 	"/>
	<polygon class="st0" points="129.7,17.8 129.3,18.2 129.6,23.3 126,28.8 123.3,24.8 122.8,18.3 121.3,17 121.9,24.8 123.5,26.1 
		123.4,25.7 125.7,29.2 125.5,29.4 126,31.4 130.3,24.8 130,23.7 	"/>
	<polygon class="st0" points="147.1,21.4 143.5,17.8 143.5,17.2 143.2,17.2 143,17.2 142.9,17.1 142.9,17.2 142.8,17.2 142.6,17.2 
		142.6,17.1 142.6,17.2 142.5,17.2 142.5,17.2 138.5,21.4 138.6,21.9 142.5,17.9 142.5,30.7 142.8,30.7 143.2,30.7 143.5,30.7 
		143.5,18.4 146.9,21.9 	"/>
</g>
<g>
	<rect x="63.8" y="24.5" transform="matrix(0.7123 -0.7018 0.7018 0.7123 1.0722 52.0365)" class="st0" width="0.5" height="0.5"/>
	<path class="st0" d="M64.4,22.4l-0.2-0.2l-1.6-1.6l-0.2-0.2l-0.2,0.2l-1.7,1.6l-0.2,0.2l0.2,0.2l1.1,1.1v0l0,0l0.5,0.6l0.2,0.2
		l0.2-0.2l1.7-1.6L64.4,22.4z M63,23.1l0-0.7l-0.7-0.7l-0.7,0.7l0,0.5l-0.5-0.5l1.3-1.3l1.3,1.3L63,23.1z"/>
	<polygon class="st0" points="60.2,24.8 61.2,25.7 62.1,24.8 61.2,23.8 	"/>
	<rect x="64.7" y="24.5" transform="matrix(0.7153 -0.6988 0.6988 0.7153 1.2165 52.4237)" class="st0" width="0.5" height="0.5"/>
	<path class="st0" d="M67.3,23.8L67.3,23.8l1.1-1.1l0.2-0.2l-0.2-0.2l-1.6-1.6l-0.2-0.2l-0.2,0.2l-1.7,1.6l-0.2,0.2l0.2,0.2l1.6,1.6
		l0.2,0.2l0.2-0.2L67.3,23.8L67.3,23.8z M66.6,21.8l-0.7,0.7l0,0.6l-0.6-0.6l1.3-1.3l1.3,1.3l-0.6,0.6l0-0.6L66.6,21.8z"/>
	<rect x="67.2" y="24.2" transform="matrix(0.7123 -0.7019 0.7019 0.7123 2.0976 54.7861)" class="st0" width="1.3" height="1.3"/>
	<path class="st0" d="M73.7,27.2l-3.4,0l2.8-3.8l-3.2-4.6l-0.1,0.1l-5.2-4.6l-5.2,4.4l-0.1-0.1l-3.2,4.5l2.7,3.9l-3.6,0l-0.2,0.2
		l2.4,2.7l1.9-2.1l0,0.6l0,0.3l0.3,0l9.8,0.1l0.3,0l0-0.3l0-0.6l1.9,2.1l2.4-2.7L73.7,27.2z M69.2,28.3l-9.2-0.1l0.1-8.7h0l1.4,1.7
		l1.4-1.7l0.3,0l1.4,1.7l1.4-1.7l0.3,0l1.4,1.7l1.4-1.7l0.2,0L69.2,28.3z"/>
	<path class="st0" d="M66.3,25.6L66.3,25.6l-0.2-0.1l-3,0l-0.1,0l-0.1,0.1l-0.1,0.1l-0.2,0.2l0.2,0.2l1.6,1.6l0.2,0.2l0.2-0.2
		l1.7-1.6l0.2-0.2l-0.2-0.2L66.3,25.6z M64.6,27.2l-1.1-1.2l2.3,0L64.6,27.2z"/>
</g>
<g>
	<path d="M55,43.9c0-1.8,1.5-3.3,3.3-3.3c1.2,0,2.3,0.7,2.8,1.6l-0.4,0.2c-0.5-0.8-1.4-1.4-2.4-1.4c-1.5,0-2.8,1.2-2.8,2.8
		c0,1.5,1.2,2.7,2.8,2.7c1,0,1.9-0.5,2.4-1.4l0.4,0.2c-0.6,1-1.6,1.6-2.8,1.6C56.5,47.2,55,45.7,55,43.9z"/>
	<path d="M67.2,46.7v0.4c-0.1,0.1-0.2,0.1-0.3,0.1c-0.5,0-0.8-0.3-0.9-0.8c-0.4,0.5-1,0.8-1.7,0.8c-1.2,0-2.2-1-2.2-2.2
		c0-1.2,1-2.2,2.2-2.2c0.7,0,1.3,0.3,1.7,0.8v-0.7h0.5v3.2c0,0.4,0.2,0.6,0.5,0.6H67.2z M65.9,45c0-1-0.8-1.7-1.7-1.7
		c-1,0-1.7,0.8-1.7,1.7c0,1,0.8,1.7,1.7,1.7C65.2,46.7,65.9,45.9,65.9,45z"/>
	<path d="M70.4,42.8v0.5c-0.1,0-0.2,0-0.3,0c-0.8,0-1.4,0.6-1.4,1.4v2.4h-0.5v-4.2h0.5v0.7c0.3-0.4,0.8-0.7,1.4-0.7
		C70.2,42.8,70.3,42.8,70.4,42.8z"/>
	<path d="M73.6,42.8v0.5c-0.1,0-0.2,0-0.3,0c-0.8,0-1.4,0.6-1.4,1.4v2.4h-0.5v-4.2h0.5v0.7c0.3-0.4,0.8-0.7,1.4-0.7
		C73.3,42.8,73.5,42.8,73.6,42.8z"/>
	<path d="M78.5,45h-3.9c0,0.9,0.8,1.6,1.7,1.6c0.7,0,1.3-0.4,1.6-1.1h0.5c-0.3,0.9-1.1,1.6-2.1,1.6c-1.2,0-2.2-1-2.2-2.2
		c0-1.2,1-2.2,2.2-2.2c1.2,0,2.1,0.9,2.2,2.1V45z M74.7,44.6H78c-0.2-0.8-0.9-1.3-1.6-1.3C75.5,43.3,74.9,43.8,74.7,44.6z"/>
	<path d="M82.1,42.8v0.5c-0.1,0-0.2,0-0.3,0c-0.8,0-1.4,0.6-1.4,1.4v2.4h-0.5v-4.2h0.5v0.7c0.3-0.4,0.8-0.7,1.4-0.7
		C81.9,42.8,82,42.8,82.1,42.8z"/>
	<path d="M87.8,46.7v0.4c-0.1,0.1-0.2,0.1-0.3,0.1c-0.5,0-0.8-0.3-0.9-0.8c-0.4,0.5-1,0.8-1.7,0.8c-1.2,0-2.2-1-2.2-2.2
		c0-1.2,1-2.2,2.2-2.2c0.7,0,1.3,0.3,1.7,0.8v-0.7h0.5v3.2c0,0.4,0.2,0.6,0.5,0.6H87.8z M86.6,45c0-1-0.8-1.7-1.7-1.7
		c-1,0-1.7,0.8-1.7,1.7c0,1,0.8,1.7,1.7,1.7C85.8,46.7,86.6,45.9,86.6,45z"/>
	<path d="M92.1,41.3H91v-0.5h1.6v6.3h-0.5V41.3z"/>
	<path d="M98.2,45.3c0,1.1-0.9,1.9-2,1.9s-2-0.8-2-1.9c0-0.8,0.5-1.4,1.2-1.7c-0.5-0.3-0.8-0.8-0.8-1.4c0-0.9,0.7-1.6,1.6-1.6
		s1.6,0.7,1.6,1.6c0,0.6-0.3,1.1-0.8,1.4C97.7,43.9,98.2,44.5,98.2,45.3z M97.7,45.3c0-0.8-0.6-1.4-1.4-1.4s-1.4,0.6-1.4,1.4
		s0.6,1.5,1.4,1.5S97.7,46.1,97.7,45.3z M96.2,43.4c0.6,0,1.1-0.5,1.1-1.1c0-0.6-0.5-1.1-1.1-1.1c-0.6,0-1.1,0.5-1.1,1.1
		C95.1,42.9,95.6,43.4,96.2,43.4z"/>
	<path d="M104.4,46.7v0.4c-0.1,0.1-0.2,0.1-0.3,0.1c-0.5,0-0.8-0.3-0.9-0.8c-0.4,0.5-1,0.8-1.7,0.8c-1.2,0-2.2-1-2.2-2.2
		c0-1.2,1-2.2,2.2-2.2c0.7,0,1.3,0.3,1.7,0.8v-0.7h0.5v3.2c0,0.4,0.2,0.6,0.5,0.6H104.4z M103.1,45c0-1-0.8-1.7-1.7-1.7
		c-1,0-1.7,0.8-1.7,1.7c0,1,0.8,1.7,1.7,1.7C102.4,46.7,103.1,45.9,103.1,45z"/>
	<path d="M108.9,45.6h-1.2l0-0.4h1.2l0.3-2.1h-1.2l0.1-0.4h1.2l0.2-1.5h0.4l-0.2,1.5h1.7l0.2-1.5h0.4l-0.2,1.5h1.2l-0.1,0.4h-1.2
		l-0.3,2.1h1.2l-0.1,0.4h-1.2l-0.2,1.5h-0.4l0.2-1.5h-1.7l-0.2,1.5h-0.4L108.9,45.6z M111.1,45.2l0.3-2.1h-1.7l-0.3,2.1H111.1z"/>
	<path d="M120.9,45.8h-0.7v1.3h-0.5v-1.3h-3.1l3-5h0.6v4.5h0.7V45.8z M119.7,45.3v-3.9l-2.3,3.9H119.7z"/>
	<path d="M122.2,43.9c0-1.8,0.8-3.3,2.3-3.3c1.4,0,2.3,1.4,2.3,3.3c0,1.8-0.8,3.3-2.3,3.3C123,47.2,122.2,45.8,122.2,43.9z
		 M126.2,43.9c0-1.6-0.6-2.8-1.7-2.8c-1.1,0-1.7,1.2-1.7,2.8c0,1.6,0.6,2.7,1.7,2.7C125.6,46.7,126.2,45.5,126.2,43.9z"/>
	<path d="M133.1,46.7v0.4c-0.1,0.1-0.2,0.1-0.3,0.1c-0.5,0-0.8-0.3-0.9-0.8c-0.4,0.5-1,0.8-1.7,0.8c-1.2,0-2.2-1-2.2-2.2
		c0-1.2,1-2.2,2.2-2.2c0.7,0,1.3,0.3,1.7,0.8v-0.7h0.5v3.2c0,0.4,0.2,0.6,0.5,0.6H133.1z M131.9,45c0-1-0.8-1.7-1.7-1.7
		c-1,0-1.7,0.8-1.7,1.7c0,1,0.8,1.7,1.7,1.7C131.1,46.7,131.9,45.9,131.9,45z"/>
	<path d="M136.4,44.7h3v0.5h-3V44.7z"/>
	<path d="M147.3,45.1c0,1.2-0.9,2.1-2.2,2.1c-0.8,0-1.5-0.3-2-0.8l0.1-0.6h0.1c0.5,0.7,1.2,0.9,1.8,0.9c1.1,0,1.7-0.7,1.7-1.6
		c0-0.9-0.7-1.6-1.6-1.6c-0.5,0-0.9,0.2-1.3,0.5l-0.5-0.3l0.4-2.9h3.1v0.5h-2.7l-0.3,2.1c0.3-0.3,0.8-0.4,1.3-0.4
		C146.4,42.9,147.3,43.9,147.3,45.1z"/>
	<path d="M152.8,46.6v0.5h-4.5l2.7-2.9c0.9-0.9,1-1.3,1-1.7c0-0.8-0.6-1.3-1.3-1.3c-0.8,0-1.4,0.5-1.4,1.3h-0.5
		c0-1.1,0.9-1.9,1.9-1.8c1,0,1.8,0.6,1.8,1.7c0,0.7-0.2,1.1-1.2,2.2l-1.9,2H152.8z"/>
	<path d="M81.9,55.6c0,1-0.8,1.7-1.7,1.7h-2.4v-6.3H80c0.9,0,1.7,0.7,1.7,1.7c0,0.7-0.4,1.2-1,1.5C81.4,54.2,81.9,54.8,81.9,55.6z
		 M80,51.4h-1.7v2.4H80c0.7,0,1.2-0.5,1.2-1.2C81.2,51.9,80.7,51.4,80,51.4z M81.4,55.5c0-0.7-0.5-1.2-1.2-1.2h-1.9v2.4h1.9
		C80.9,56.7,81.4,56.2,81.4,55.5z"/>
	<path d="M83,55.1c0-1.2,1-2.2,2.2-2.2s2.2,1,2.2,2.2c0,1.2-1,2.2-2.2,2.2S83,56.4,83,55.1z M86.9,55.1c0-1-0.8-1.7-1.7-1.7
		c-1,0-1.7,0.8-1.7,1.7c0,1,0.8,1.7,1.7,1.7C86.1,56.8,86.9,56.1,86.9,55.1z"/>
	<path d="M92.8,53v4.6c0,1.2-1,2.2-2.2,2.2c-0.9,0-1.7-0.5-2-1.4l0.5-0.2c0.3,0.6,0.9,1.1,1.6,1.1c0.9,0,1.7-0.8,1.7-1.7v-1.1
		c-0.4,0.5-1,0.8-1.7,0.8c-1.2,0-2.2-1-2.2-2.2c0-1.2,1-2.2,2.2-2.2c0.7,0,1.3,0.3,1.7,0.8V53H92.8z M92.3,55.1c0-1-0.8-1.7-1.7-1.7
		c-1,0-1.7,0.8-1.7,1.7c0,0.9,0.8,1.7,1.7,1.7C91.6,56.8,92.3,56.1,92.3,55.1z"/>
	<path d="M94.2,55.1c0-1.2,1-2.2,2.2-2.2s2.2,1,2.2,2.2c0,1.2-1,2.2-2.2,2.2S94.2,56.4,94.2,55.1z M98.1,55.1c0-1-0.8-1.7-1.7-1.7
		c-1,0-1.7,0.8-1.7,1.7c0,1,0.8,1.7,1.7,1.7C97.3,56.8,98.1,56.1,98.1,55.1z"/>
	<path d="M100.5,53.5v2.7c0,0.4,0.3,0.7,0.7,0.7h0.5v0.3c-0.1,0.1-0.3,0.1-0.5,0.1c-0.6,0-1.1-0.5-1.1-1.1v-2.7h-0.7V53h0.7v-1.8
		h0.5V53h1.2v0.5H100.5z"/>
	<path d="M107.7,56.9v0.4c-0.1,0.1-0.2,0.1-0.3,0.1c-0.5,0-0.8-0.3-0.9-0.8c-0.4,0.5-1,0.8-1.7,0.8c-1.2,0-2.2-1-2.2-2.2
		c0-1.2,1-2.2,2.2-2.2c0.7,0,1.3,0.3,1.7,0.8V53h0.5v3.2c0,0.4,0.2,0.6,0.5,0.6H107.7z M106.5,55.1c0-1-0.8-1.7-1.7-1.7
		c-1,0-1.7,0.8-1.7,1.7c0,1,0.8,1.7,1.7,1.7C105.8,56.8,106.5,56.1,106.5,55.1z M105,52.5h-0.4l0.9-1.6h0.6L105,52.5z"/>
	<path d="M107.9,58.6l1.1-2.5h0.6l-1.3,2.5H107.9z"/>
	<path d="M112.8,54.1c0-1.8,1.5-3.3,3.3-3.3c1.2,0,2.3,0.7,2.8,1.6l-0.4,0.2c-0.5-0.8-1.4-1.4-2.4-1.4c-1.5,0-2.8,1.2-2.8,2.8
		c0,1.5,1.2,2.7,2.8,2.7c1,0,1.9-0.5,2.4-1.4l0.4,0.2c-0.6,1-1.6,1.6-2.8,1.6C114.3,57.3,112.8,55.9,112.8,54.1z"/>
	<path d="M119.8,55.1c0-1.2,1-2.2,2.2-2.2s2.2,1,2.2,2.2c0,1.2-1,2.2-2.2,2.2S119.8,56.4,119.8,55.1z M123.7,55.1
		c0-1-0.8-1.7-1.7-1.7c-1,0-1.7,0.8-1.7,1.7c0,1,0.8,1.7,1.7,1.7C123,56.8,123.7,56.1,123.7,55.1z"/>
	<path d="M125.6,49.5h0.5v7.8h-0.5V49.5z"/>
	<path d="M127.4,55.1c0-1.2,1-2.2,2.2-2.2s2.2,1,2.2,2.2c0,1.2-1,2.2-2.2,2.2S127.4,56.4,127.4,55.1z M131.3,55.1
		c0-1-0.8-1.7-1.7-1.7c-1,0-1.7,0.8-1.7,1.7c0,1,0.8,1.7,1.7,1.7C130.5,56.8,131.3,56.1,131.3,55.1z"/>
	<path d="M138.7,54.5v2.7h-0.5v-2.7c0-0.6-0.5-1.1-1-1.1c-0.6,0-1,0.5-1,1.1v2.7h-0.5v-2.7c0-0.6-0.5-1.1-1-1.1s-1,0.5-1,1.1v2.7
		h-0.5V53h0.5v0.5c0.3-0.3,0.6-0.5,1.1-0.5c0.5,0,1,0.3,1.2,0.7c0.3-0.4,0.7-0.7,1.3-0.7C138,52.9,138.7,53.6,138.7,54.5z"/>
	<path d="M144.7,55.1c0,1.2-1,2.2-2.2,2.2c-0.7,0-1.3-0.3-1.7-0.8v0.7h-0.5v-7.8h0.5v4.3c0.4-0.5,1-0.8,1.7-0.8
		C143.7,52.9,144.7,53.9,144.7,55.1z M144.2,55.1c0-1-0.8-1.7-1.7-1.7c-1,0-1.7,0.8-1.7,1.7c0,1,0.8,1.7,1.7,1.7
		C143.4,56.8,144.2,56.1,144.2,55.1z"/>
	<path d="M146,51.8c0-0.2,0.2-0.4,0.4-0.4c0.2,0,0.4,0.2,0.4,0.4c0,0.2-0.2,0.4-0.4,0.4C146.1,52.2,146,52,146,51.8z M146.1,53h0.5
		v4.2h-0.5V53z"/>
	<path d="M153.2,56.9v0.4c-0.1,0.1-0.2,0.1-0.3,0.1c-0.5,0-0.8-0.3-0.9-0.8c-0.4,0.5-1,0.8-1.7,0.8c-1.2,0-2.2-1-2.2-2.2
		c0-1.2,1-2.2,2.2-2.2c0.7,0,1.3,0.3,1.7,0.8V53h0.5v3.2c0,0.4,0.2,0.6,0.5,0.6H153.2z M151.9,55.1c0-1-0.8-1.7-1.7-1.7
		c-1,0-1.7,0.8-1.7,1.7c0,1,0.8,1.7,1.7,1.7C151.2,56.8,151.9,56.1,151.9,55.1z"/>
	<path d="M74.8,61.6H73v5.8h-0.5v-5.8h-1.8v-0.5h4.1V61.6z"/>
	<path d="M79.4,65.3h-3.9c0,0.9,0.8,1.6,1.7,1.6c0.7,0,1.3-0.4,1.6-1.1h0.5c-0.3,0.9-1.1,1.6-2.1,1.6c-1.2,0-2.2-1-2.2-2.2
		c0-1.2,1-2.2,2.2-2.2c1.2,0,2.1,0.9,2.2,2.1V65.3z M75.5,64.9h3.3c-0.2-0.8-0.9-1.3-1.6-1.3C76.4,63.6,75.7,64.1,75.5,64.9z"/>
	<path d="M80.7,59.6h0.5v7.8h-0.5V59.6z"/>
	<path d="M82.6,67c0-0.3,0.2-0.5,0.5-0.5s0.5,0.2,0.5,0.5c0,0.3-0.2,0.5-0.5,0.5S82.6,67.3,82.6,67z"/>
	<path d="M94.2,66.9v0.5h-4.5l2.7-2.9c0.9-0.9,1-1.3,1-1.7c0-0.8-0.6-1.3-1.3-1.3c-0.8,0-1.4,0.5-1.4,1.3h-0.5
		c0-1.1,0.9-1.9,1.9-1.8c1,0,1.8,0.6,1.8,1.7c0,0.7-0.2,1.1-1.2,2.2l-1.9,2H94.2z"/>
	<path d="M99.2,65.6c0,1.1-0.9,1.9-2,1.9s-2-0.8-2-1.9c0-0.8,0.5-1.4,1.2-1.7c-0.5-0.3-0.8-0.8-0.8-1.4c0-0.9,0.7-1.6,1.6-1.6
		s1.6,0.7,1.6,1.6c0,0.6-0.3,1.1-0.8,1.4C98.7,64.2,99.2,64.8,99.2,65.6z M98.6,65.6c0-0.8-0.6-1.4-1.4-1.4s-1.4,0.6-1.4,1.4
		s0.6,1.5,1.4,1.5S98.6,66.4,98.6,65.6z M97.2,63.7c0.6,0,1.1-0.5,1.1-1.1c0-0.6-0.5-1.1-1.1-1.1c-0.6,0-1.1,0.5-1.1,1.1
		C96.1,63.2,96.6,63.7,97.2,63.7z"/>
	<path d="M104.4,65.3c0,1.2-0.9,2.1-2.2,2.1c-0.8,0-1.5-0.3-2-0.8l0.1-0.6h0.1c0.5,0.7,1.2,0.9,1.8,0.9c1.1,0,1.7-0.7,1.7-1.6
		c0-0.9-0.7-1.6-1.6-1.6c-0.5,0-0.9,0.2-1.3,0.5l-0.5-0.3l0.4-2.9h3.1v0.5h-2.7l-0.3,2.1c0.3-0.3,0.8-0.4,1.3-0.4
		C103.5,63.2,104.4,64.1,104.4,65.3z"/>
	<path d="M112,64.6l-2.3,2.8h-0.7l1.9-2.3c-0.1,0.1-0.3,0.1-0.6,0.1c-1,0-2.1-0.8-2.2-2c-0.1-1.2,0.9-2.2,2.1-2.3
		c1.2-0.1,2.2,0.8,2.3,2C112.6,63.6,112.4,64.1,112,64.6z M112.1,63c-0.1-0.9-0.8-1.6-1.8-1.5c-1,0.1-1.6,0.8-1.6,1.8
		c0.1,1,0.8,1.6,1.8,1.6C111.5,64.7,112.2,64,112.1,63z"/>
	<path d="M117.6,66.1h-0.7v1.3h-0.5v-1.3h-3.1l3-5h0.6v4.5h0.7V66.1z M116.4,65.6v-3.9l-2.3,3.9H116.4z"/>
	<path d="M125.5,65.3c0,1.2-0.9,2.1-2.2,2.1c-0.8,0-1.5-0.3-2-0.8l0.1-0.6h0.1c0.5,0.7,1.2,0.9,1.8,0.9c1.1,0,1.7-0.7,1.7-1.6
		c0-0.9-0.7-1.6-1.6-1.6c-0.5,0-0.9,0.2-1.3,0.5l-0.5-0.3l0.4-2.9h3.1v0.5h-2.7l-0.3,2.1c0.3-0.3,0.8-0.4,1.3-0.4
		C124.6,63.2,125.5,64.1,125.5,65.3z"/>
	<path d="M130.6,64.6l-2.3,2.8h-0.7l1.9-2.3c-0.1,0.1-0.3,0.1-0.6,0.1c-1,0-2.1-0.8-2.2-2c-0.1-1.2,0.9-2.2,2.1-2.3
		c1.2-0.1,2.2,0.8,2.3,2C131.2,63.6,131,64.1,130.6,64.6z M130.7,63c-0.1-0.9-0.8-1.6-1.8-1.5c-1,0.1-1.6,0.8-1.6,1.8
		c0.1,1,0.8,1.6,1.8,1.6C130,64.7,130.7,64,130.7,63z"/>
	<path d="M139.7,59.6h0.5l-5.4,10.3h-0.5L139.7,59.6z"/>
	<path d="M145.6,67.5c-1.2,0.1-2.2-0.8-2.3-2c0-0.6,0.2-1.1,0.6-1.6l2.3-2.8h0.7l-1.9,2.3c0.1-0.1,0.3-0.1,0.6-0.1
		c1,0,2.1,0.8,2.2,2C147.7,66.4,146.7,67.4,145.6,67.5z M147.1,65.2c-0.1-1-0.8-1.6-1.8-1.6s-1.6,0.8-1.6,1.8
		c0.1,0.9,0.8,1.6,1.8,1.5C146.5,66.9,147.2,66.1,147.1,65.2z"/>
	<path d="M153,61.1v0.3l-3.4,6h-0.6l3.4-5.8h-3.5v-0.5H153z"/>
	<path d="M78.9,72.1c0-0.2,0.2-0.4,0.4-0.4c0.2,0,0.4,0.2,0.4,0.4c0,0.2-0.2,0.4-0.4,0.4C79,72.5,78.9,72.3,78.9,72.1z M79,73.3h0.5
		v4.2H79V73.3z"/>
	<path d="M84.4,74.8v2.7H84v-2.7c0-0.6-0.5-1.1-1.1-1.1s-1.1,0.5-1.1,1.1v2.7h-0.5v-4.2h0.5v0.5c0.3-0.3,0.7-0.5,1.2-0.5
		C83.7,73.2,84.4,73.9,84.4,74.8z"/>
	<path d="M87.9,73.8h-1.2v3.7h-0.5v-3.7h-0.7v-0.5h0.7v-2.5c0-0.6,0.5-1.1,1.1-1.1c0.2,0,0.4,0.1,0.5,0.1v0.4l-0.5,0
		c-0.4,0-0.7,0.3-0.7,0.7v2.4h1.2V73.8z"/>
	<path d="M88.7,75.4c0-1.2,1-2.2,2.2-2.2s2.2,1,2.2,2.2c0,1.2-1,2.2-2.2,2.2S88.7,76.6,88.7,75.4z M92.6,75.4c0-1-0.8-1.7-1.7-1.7
		c-1,0-1.7,0.8-1.7,1.7c0,1,0.8,1.7,1.7,1.7C91.8,77.1,92.6,76.4,92.6,75.4z"/>
	<path d="M97.6,76.3v-0.3c-0.2,0.3-0.5,0.4-0.9,0.4c-0.6,0-1.1-0.5-1.1-1.1c0-0.6,0.5-1.1,1.1-1.1c0.3,0,0.7,0.2,0.9,0.5v-0.3
		c0-0.7-0.6-1.2-1.3-1.2c-1,0-1.8,0.9-1.8,2c0,1.1,0.9,2,2.1,2H98v0.3h-1.4c-1.4,0-2.4-1-2.4-2.3c0-1.3,1-2.3,2.2-2.3
		c0.9,0,1.6,0.7,1.6,1.5v1.8H97.6z M97.6,75.5v-0.4c-0.1-0.3-0.4-0.6-0.8-0.6c-0.4,0-0.8,0.3-0.8,0.8c0,0.4,0.3,0.8,0.8,0.8
		C97.2,76.1,97.5,75.8,97.6,75.5z"/>
	<path d="M99.7,69.8h0.5v7.8h-0.5V69.8z"/>
	<path d="M106.6,77.1v0.4c-0.1,0.1-0.2,0.1-0.3,0.1c-0.5,0-0.8-0.3-0.9-0.8c-0.4,0.5-1,0.8-1.7,0.8c-1.2,0-2.2-1-2.2-2.2
		c0-1.2,1-2.2,2.2-2.2c0.7,0,1.3,0.3,1.7,0.8v-0.7h0.5v3.2c0,0.4,0.2,0.6,0.5,0.6H106.6z M105.4,75.4c0-1-0.8-1.7-1.7-1.7
		c-1,0-1.7,0.8-1.7,1.7c0,1,0.8,1.7,1.7,1.7C104.6,77.1,105.4,76.4,105.4,75.4z"/>
	<path d="M107.2,76.7l0.5-0.2c0.1,0.3,0.5,0.6,1,0.6c0.4,0,0.8-0.3,0.8-0.7c0-0.4-0.4-0.6-0.9-0.8c-0.7-0.3-1.2-0.6-1.2-1.3
		c0-0.8,0.6-1.2,1.2-1.2c0.5,0,1,0.3,1.2,0.6l-0.4,0.2c-0.1-0.3-0.4-0.4-0.7-0.4c-0.4,0-0.7,0.2-0.7,0.6c0,0.5,0.3,0.6,0.9,0.8
		c0.6,0.2,1.2,0.5,1.2,1.3c0,0.7-0.6,1.2-1.3,1.2C107.9,77.6,107.3,77.2,107.2,76.7z"/>
	<path d="M111.1,72.1c0-0.2,0.2-0.4,0.4-0.4c0.2,0,0.4,0.2,0.4,0.4c0,0.2-0.2,0.4-0.4,0.4C111.2,72.5,111.1,72.3,111.1,72.1z
		 M111.2,73.3h0.5v4.2h-0.5V73.3z"/>
	<path d="M113.4,69.8h0.5v7.8h-0.5V69.8z"/>
	<path d="M115.4,76v-2.7h0.5V76c0,0.7,0.5,1.2,1.1,1.2c0.6,0,1.1-0.5,1.1-1.2v-2.6h0.5V76c0,1-0.6,1.6-1.6,1.6S115.4,77,115.4,76z"
		/>
	<path d="M124.1,75.5h-3.9c0,0.9,0.8,1.6,1.7,1.6c0.7,0,1.3-0.4,1.6-1.1h0.5c-0.3,0.9-1.1,1.6-2.1,1.6c-1.2,0-2.2-1-2.2-2.2
		c0-1.2,1-2.2,2.2-2.2c1.2,0,2.1,0.9,2.2,2.1V75.5z M120.3,75h3.3c-0.2-0.8-0.9-1.3-1.6-1.3C121.1,73.7,120.5,74.3,120.3,75z"/>
	<path d="M126.1,73.8v2.7c0,0.4,0.3,0.7,0.7,0.7h0.5v0.3c-0.1,0.1-0.3,0.1-0.5,0.1c-0.6,0-1.1-0.5-1.1-1.1v-2.7h-0.7v-0.5h0.7v-1.8
		h0.5v1.8h1.2v0.5H126.1z"/>
	<path d="M133.3,77.1v0.4c-0.1,0.1-0.2,0.1-0.3,0.1c-0.5,0-0.8-0.3-0.9-0.8c-0.4,0.5-1,0.8-1.7,0.8c-1.2,0-2.2-1-2.2-2.2
		c0-1.2,1-2.2,2.2-2.2c0.7,0,1.3,0.3,1.7,0.8v-0.7h0.5v3.2c0,0.4,0.2,0.6,0.5,0.6H133.3z M132.1,75.4c0-1-0.8-1.7-1.7-1.7
		c-1,0-1.7,0.8-1.7,1.7c0,1,0.8,1.7,1.7,1.7C131.3,77.1,132.1,76.4,132.1,75.4z"/>
	<path d="M134,77.1c0-0.3,0.2-0.5,0.5-0.5s0.5,0.2,0.5,0.5c0,0.3-0.2,0.5-0.5,0.5S134,77.4,134,77.1z"/>
	<path d="M136.1,75.4c0-1.2,1-2.2,2.2-2.2c1,0,1.8,0.6,2.1,1.5h-0.5c-0.3-0.6-0.9-1-1.6-1c-0.9,0-1.7,0.7-1.7,1.7
		c0,1,0.8,1.7,1.7,1.7c0.7,0,1.3-0.4,1.6-1h0.5c-0.3,0.9-1.1,1.5-2.1,1.5C137.1,77.6,136.1,76.6,136.1,75.4z"/>
	<path d="M141.2,75.4c0-1.2,1-2.2,2.2-2.2s2.2,1,2.2,2.2c0,1.2-1,2.2-2.2,2.2S141.2,76.6,141.2,75.4z M145.1,75.4
		c0-1-0.8-1.7-1.7-1.7c-1,0-1.7,0.8-1.7,1.7c0,1,0.8,1.7,1.7,1.7C144.4,77.1,145.1,76.4,145.1,75.4z"/>
	<path d="M152.5,74.8v2.7H152v-2.7c0-0.6-0.5-1.1-1-1.1c-0.6,0-1,0.5-1,1.1v2.7h-0.5v-2.7c0-0.6-0.5-1.1-1-1.1s-1,0.5-1,1.1v2.7H147
		v-4.2h0.5v0.5c0.3-0.3,0.6-0.5,1.1-0.5c0.5,0,1,0.3,1.2,0.7c0.3-0.4,0.7-0.7,1.3-0.7C151.9,73.2,152.5,73.9,152.5,74.8z"/>
	<path d="M83.1,83.5l-1.4,4.2h-0.5l-1.2-3.6l-1.2,3.6h-0.5l-1.5-4.2h0.5l1.2,3.6l1.2-3.6h0.5l1.2,3.6l1.2-3.6H83.1z"/>
	<path d="M89.8,83.5l-1.4,4.2h-0.5l-1.2-3.6l-1.2,3.6h-0.5l-1.5-4.2h0.5l1.2,3.6l1.2-3.6h0.5l1.2,3.6l1.2-3.6H89.8z"/>
	<path d="M96.5,83.5l-1.4,4.2h-0.5l-1.2-3.6l-1.2,3.6h-0.5l-1.5-4.2h0.5l1.2,3.6l1.2-3.6h0.5l1.2,3.6l1.2-3.6H96.5z"/>
	<path d="M97.3,87.3c0-0.3,0.2-0.5,0.5-0.5s0.5,0.2,0.5,0.5c0,0.3-0.2,0.5-0.5,0.5S97.3,87.6,97.3,87.3z"/>
	<path d="M99.7,79.9h0.5v7.8h-0.5V79.9z"/>
	<path d="M106.6,87.3v0.4c-0.1,0.1-0.2,0.1-0.3,0.1c-0.5,0-0.8-0.3-0.9-0.8c-0.4,0.5-1,0.8-1.7,0.8c-1.2,0-2.2-1-2.2-2.2
		c0-1.2,1-2.2,2.2-2.2c0.7,0,1.3,0.3,1.7,0.8v-0.7h0.5v3.2c0,0.4,0.2,0.6,0.5,0.6H106.6z M105.4,85.6c0-1-0.8-1.7-1.7-1.7
		c-1,0-1.7,0.8-1.7,1.7c0,1,0.8,1.7,1.7,1.7C104.6,87.3,105.4,86.5,105.4,85.6z"/>
	<path d="M107.2,86.9l0.5-0.2c0.1,0.3,0.5,0.6,1,0.6c0.4,0,0.8-0.3,0.8-0.7c0-0.4-0.4-0.6-0.9-0.8c-0.7-0.3-1.2-0.6-1.2-1.3
		c0-0.8,0.6-1.2,1.2-1.2c0.5,0,1,0.3,1.2,0.6l-0.4,0.2c-0.1-0.3-0.4-0.4-0.7-0.4c-0.4,0-0.7,0.2-0.7,0.6c0,0.5,0.3,0.6,0.9,0.8
		c0.6,0.2,1.2,0.5,1.2,1.3c0,0.7-0.6,1.2-1.3,1.2C107.9,87.8,107.3,87.4,107.2,86.9z"/>
	<path d="M111.1,82.3c0-0.2,0.2-0.4,0.4-0.4c0.2,0,0.4,0.2,0.4,0.4c0,0.2-0.2,0.4-0.4,0.4C111.2,82.6,111.1,82.5,111.1,82.3z
		 M111.2,83.5h0.5v4.2h-0.5V83.5z"/>
	<path d="M113.4,79.9h0.5v7.8h-0.5V79.9z"/>
	<path d="M115.4,86.2v-2.7h0.5v2.6c0,0.7,0.5,1.2,1.1,1.2c0.6,0,1.1-0.5,1.1-1.2v-2.6h0.5v2.7c0,1-0.6,1.6-1.6,1.6
		S115.4,87.1,115.4,86.2z"/>
	<path d="M124.1,85.6h-3.9c0,0.9,0.8,1.6,1.7,1.6c0.7,0,1.3-0.4,1.6-1.1h0.5c-0.3,0.9-1.1,1.6-2.1,1.6c-1.2,0-2.2-1-2.2-2.2
		c0-1.2,1-2.2,2.2-2.2c1.2,0,2.1,0.9,2.2,2.1V85.6z M120.3,85.2h3.3c-0.2-0.8-0.9-1.3-1.6-1.3C121.1,83.9,120.5,84.4,120.3,85.2z"/>
	<path d="M126.1,83.9v2.7c0,0.4,0.3,0.7,0.7,0.7h0.5v0.3c-0.1,0.1-0.3,0.1-0.5,0.1c-0.6,0-1.1-0.5-1.1-1.1v-2.7h-0.7v-0.5h0.7v-1.8
		h0.5v1.8h1.2v0.5H126.1z"/>
	<path d="M133.3,87.3v0.4c-0.1,0.1-0.2,0.1-0.3,0.1c-0.5,0-0.8-0.3-0.9-0.8c-0.4,0.5-1,0.8-1.7,0.8c-1.2,0-2.2-1-2.2-2.2
		c0-1.2,1-2.2,2.2-2.2c0.7,0,1.3,0.3,1.7,0.8v-0.7h0.5v3.2c0,0.4,0.2,0.6,0.5,0.6H133.3z M132.1,85.6c0-1-0.8-1.7-1.7-1.7
		c-1,0-1.7,0.8-1.7,1.7c0,1,0.8,1.7,1.7,1.7C131.3,87.3,132.1,86.5,132.1,85.6z"/>
	<path d="M134,87.3c0-0.3,0.2-0.5,0.5-0.5s0.5,0.2,0.5,0.5c0,0.3-0.2,0.5-0.5,0.5S134,87.6,134,87.3z"/>
	<path d="M136.1,85.6c0-1.2,1-2.2,2.2-2.2c1,0,1.8,0.6,2.1,1.5h-0.5c-0.3-0.6-0.9-1-1.6-1c-0.9,0-1.7,0.7-1.7,1.7
		c0,1,0.8,1.7,1.7,1.7c0.7,0,1.3-0.4,1.6-1h0.5c-0.3,0.9-1.1,1.5-2.1,1.5C137.1,87.8,136.1,86.8,136.1,85.6z"/>
	<path d="M141.2,85.6c0-1.2,1-2.2,2.2-2.2s2.2,1,2.2,2.2c0,1.2-1,2.2-2.2,2.2S141.2,86.8,141.2,85.6z M145.1,85.6
		c0-1-0.8-1.7-1.7-1.7c-1,0-1.7,0.8-1.7,1.7c0,1,0.8,1.7,1.7,1.7C144.4,87.3,145.1,86.5,145.1,85.6z"/>
	<path d="M152.5,84.9v2.7H152v-2.7c0-0.6-0.5-1.1-1-1.1c-0.6,0-1,0.5-1,1.1v2.7h-0.5v-2.7c0-0.6-0.5-1.1-1-1.1s-1,0.5-1,1.1v2.7H147
		v-4.2h0.5v0.5c0.3-0.3,0.6-0.5,1.1-0.5c0.5,0,1,0.3,1.2,0.7c0.3-0.4,0.7-0.7,1.3-0.7C151.9,83.4,152.5,84.1,152.5,84.9z"/>
</g>
</svg>
