<svg xmlns="http://www.w3.org/2000/svg" viewBox="0 0 77.95 129.47"><defs><style>.cls-1,.cls-2{fill:none;stroke:#e9dfb7;}.cls-1{stroke-width:2.09px;}.cls-2{stroke-width:1.04px;}.cls-3{fill:#e9dfb7;}</style></defs><title>Recurso 1</title><g id="Capa_2" data-name="Capa 2"><g id="Presentacion"><line class="cls-1" x1="1.3" y1="76.18" x2="1.3" y2="129.19"/><line class="cls-1" x1="9" y1="76.18" x2="9" y2="129.19"/><line class="cls-1" x1="14.36" y1="76.18" x2="14.36" y2="129.19"/><line class="cls-1" x1="22.51" y1="76.18" x2="22.51" y2="129.19"/><line class="cls-2" x1="3.95" y1="78.07" x2="3.95" y2="129.19"/><line class="cls-2" x1="6.6" y1="78.07" x2="6.6" y2="129.19"/><line class="cls-2" x1="17.21" y1="78.07" x2="17.21" y2="129.19"/><line class="cls-2" x1="19.86" y1="78.07" x2="19.86" y2="129.19"/><line class="cls-1" x1="29.04" y1="76.18" x2="29.04" y2="129.19"/><line class="cls-1" x1="37.18" y1="76.18" x2="37.18" y2="129.19"/><line class="cls-2" x1="31.88" y1="78.07" x2="31.88" y2="129.19"/><line class="cls-2" x1="34.53" y1="78.07" x2="34.53" y2="129.19"/><line class="cls-1" x1="67.38" y1="76.18" x2="67.38" y2="129.19"/><line class="cls-1" x1="75.52" y1="76.18" x2="75.52" y2="129.19"/><line class="cls-2" x1="70.22" y1="78.07" x2="70.22" y2="129.19"/><line class="cls-2" x1="72.87" y1="78.07" x2="72.87" y2="129.19"/><line class="cls-1" x1="39.64" y1="0.4" x2="39.64" y2="53.41"/><line class="cls-1" x1="47.34" y1="0.4" x2="47.34" y2="53.41"/><line class="cls-1" x1="52.7" y1="0.4" x2="52.7" y2="53.41"/><line class="cls-1" x1="60.84" y1="0.4" x2="60.84" y2="53.41"/><line class="cls-2" x1="42.29" y1="2.29" x2="42.29" y2="53.41"/><line class="cls-2" x1="44.94" y1="2.29" x2="44.94" y2="53.41"/><line class="cls-2" x1="55.55" y1="2.29" x2="55.55" y2="53.41"/><line class="cls-2" x1="58.2" y1="2.29" x2="58.2" y2="53.41"/><line class="cls-1" x1="67.38" y1="0.4" x2="67.38" y2="53.41"/><line class="cls-1" x1="75.52" y1="0.4" x2="75.52" y2="53.41"/><line class="cls-2" x1="70.22" y1="2.29" x2="70.22" y2="53.41"/><line class="cls-2" x1="72.87" y1="2.29" x2="72.87" y2="53.41"/><line class="cls-1" x1="1.3" y1="0.4" x2="1.3" y2="53.41"/><line class="cls-1" x1="9.44" y1="0.4" x2="9.44" y2="53.41"/><line class="cls-2" x1="4.14" y1="2.29" x2="4.14" y2="53.41"/><line class="cls-2" x1="6.79" y1="2.29" x2="6.79" y2="53.41"/><line class="cls-1" x1="27.5" y1="0.28" x2="13.29" y2="51.35"/><line class="cls-1" x1="35.34" y1="2.46" x2="21.13" y2="53.53"/><line class="cls-2" x1="29.73" y1="2.86" x2="16.03" y2="52.11"/><line class="cls-2" x1="32.28" y1="3.57" x2="18.58" y2="52.82"/><line class="cls-1" x1="49.1" y1="75.94" x2="63.3" y2="127.01"/><line class="cls-1" x1="41.25" y1="78.12" x2="55.46" y2="129.19"/><line class="cls-2" x1="46.87" y1="78.52" x2="60.57" y2="127.77"/><line class="cls-2" x1="44.31" y1="79.23" x2="58.02" y2="128.48"/><path class="cls-3" d="M3.58,68.08l-.51,1.69,1.53.61v.92H0v-.92l1.46-.59L4.9,58.88h1L9.27,69.79l1.46.59v.92H6.13v-.92l1.54-.61-.53-1.69Zm3.07-1.53L5.37,62.39l-1.3,4.16Z"/><path class="cls-3" d="M15.33,59l3.62,8.13V59h2.91v.92l-1.53.63V71.3H19.19l-3.92-8.81v7.29l1.53.61v.92H12.34v-.92l1.54-.61v-9.2l-1.54-.63V59Z"/><path class="cls-3" d="M26.76,68.08l-.51,1.69,1.53.61v.92h-4.6v-.92l1.46-.59,3.44-10.91h1l3.42,10.91,1.46.59v.92h-4.6v-.92l1.54-.61-.53-1.69Zm3.07-1.53-1.28-4.16-1.3,4.16Z"/><path class="cls-3" d="M40.14,71.37a3.83,3.83,0,0,0,.35,1.69,1.15,1.15,0,0,0,1.08.53,1.75,1.75,0,0,0,1-.35,2.46,2.46,0,0,0,.8-.88l.61.93a3.39,3.39,0,0,1-1.13,1.24,2.78,2.78,0,0,1-1.54.44,2.52,2.52,0,0,1-1.45-.39,2.4,2.4,0,0,1-.88-1.2,6.61,6.61,0,0,1-.34-2,3.23,3.23,0,0,1-1.42-.72,4.23,4.23,0,0,1-1-1.37,7.49,7.49,0,0,1-.6-1.89,12,12,0,0,1-.2-2.23A10.88,10.88,0,0,1,35.82,62a5,5,0,0,1,1.33-2.26,3.36,3.36,0,0,1,4.44,0A5,5,0,0,1,42.91,62a11,11,0,0,1,.43,3.19,12.26,12.26,0,0,1-.19,2.22,7.44,7.44,0,0,1-.58,1.87,4.41,4.41,0,0,1-1,1.37A3.05,3.05,0,0,1,40.14,71.37Zm-3.07-6.2a7.83,7.83,0,0,0,.61,3.29,1.87,1.87,0,0,0,1.69,1.31,1.61,1.61,0,0,0,1.24-.6,3.91,3.91,0,0,0,.79-1.65,10.56,10.56,0,0,0,0-4.71,3.91,3.91,0,0,0-.79-1.65,1.6,1.6,0,0,0-2.49,0,3.91,3.91,0,0,0-.79,1.65A9.64,9.64,0,0,0,37.07,65.17Z"/><path class="cls-3" d="M54.33,60.57l-1.54-.63V59h4.6v.92l-1.53.63v6.11a5.9,5.9,0,0,1-.32,2,4.3,4.3,0,0,1-.89,1.5,3.81,3.81,0,0,1-1.32.93,4.2,4.2,0,0,1-3.21,0,3.86,3.86,0,0,1-1.33-.93,4.23,4.23,0,0,1-.89-1.5,6,6,0,0,1-.32-2V60.57L46,59.94V59h4.6v.92l-1.54.63v6A3.76,3.76,0,0,0,49.84,69a2.47,2.47,0,0,0,3.75,0,3.8,3.8,0,0,0,.73-2.51Z"/><path class="cls-3" d="M63.31,65.17v4.6h2.76l.61-1.54h.92V71.3H60.23v-.92l1.54-.61v-9.2l-1.54-.63V59h7.36V62.1h-.92l-.61-1.53H63.31v3.05h3.07v1.54Z"/><path class="cls-3" d="M71.05,71.3v-.92l1.54-.61v-9.2l-1.54-.63V59h4.6v.92l-1.53.63v9.2h2.3L77,68.22H78V71.3Z"/></g></g></svg>